:FULLY-SPECIFIED
:FORCE-ALL-JOINTS-BE-3DOF
:DEGREES
2141
root -2.57591 15.2132 -0.152963 -175.981 8.28119 -174.518
lfemur -57.6853 14.0056 -24.6934
ltibia 53.4144 -0 0
lfoot 2.08148 21.5094 0.0798874
ltoes 3.5267 -0 0
rfemur 4.08243 -0.0418807 24.2471
rtibia 64.1572 -0 0
rfoot 6.09182 17.8414 0.897293
rtoes -24.8157 0 0
lowerback 10.1298 0.281371 -0.382334
upperback -1.52695 0.665641 3.23428
thorax -7.37312 0.458068 3.49796
lowerneck -5.01757 0.596023 -4.12641
upperneck 4.47458 1.01456 2.23869
head 2.29344 0.513859 1.50092
lclavicle 1.36292e-14 -2.00773e-14 0
lhumerus 51.0326 2.92956 102.28
lradius 19.6164 -0 0
lwrist -47.6018 0 0
lhand -32.7147 39.7799 0.00771466
lfingers 7.12502 -0 0
lthumb -5.9387 69.6839 0.00810377
rclavicle 1.36292e-14 -2.00773e-14 0
rhumerus -59.1499 21.3159 -93.6053
rradius 109.754 -0 0
rwrist -70.6681 0 0
rhand -15.5789 -32.1566 0.106644
rfingers 7.12502 -0 0
rthumb 10.607 -61.8872 0.0963197
2142
root -2.56886 15.2093 -0.443952 -176.51 7.27378 -175.167
lfemur -55.6677 13.5791 -25.0633
ltibia 53.7926 -0 0
lfoot 1.2248 22.4738 0.0374288
ltoes 4.42885 -0 0
rfemur 1.62698 -0.235938 23.2436
rtibia 66.2651 -0 0
rfoot 7.80793 18.2315 0.463405
rtoes -23.056 0 0
lowerback 10.282 0.143636 -1.1014
upperback -1.3757 0.367094 3.15213
thorax -7.27281 0.332462 3.88063
lowerneck -5.14472 0.500254 -4.25208
upperneck 4.58736 0.885815 2.23392
head 2.3429 0.441026 1.5049
lclavicle 1.36292e-14 -2.00773e-14 0
lhumerus 51.4211 2.61039 102.833
lradius 17.1429 -0 0
lwrist -47.0723 0 0
lhand -32.668 39.8898 0.000217288
lfingers 7.12502 -0 0
lthumb -5.89363 69.7892 0.000412848
rclavicle 1.36292e-14 -2.00773e-14 0
rhumerus -60.9157 19.5627 -93.5488
rradius 109.433 -0 0
rwrist -70.4875 0 0
rhand -15.5372 -32.754 0.0493268
rfingers 7.12502 -0 0
rthumb 10.6472 -62.4756 0.0436005
2143
root -2.5618 15.2055 -0.734941 902.871 6.12727 184.092
lfemur -53.4469 13.0892 -25.5282
ltibia 54.0159 0 0
lfoot 0.18855 23.5751 0
ltoes 5.22427 0 0
rfemur -1.33383 -0.556961 22.1025
rtibia 68.7636 0 0
rfoot 9.54346 18.4854 0
rtoes -21.136 0 0
lowerback 10.4867 -0.0204328 -1.93176
upperback -1.20673 0.0137355 3.05488
thorax -7.17732 0.182604 4.32251
lowerneck -5.29888 0.402811 -4.38228
upperneck 4.77636 0.75439 2.22752
head 2.41728 0.365493 1.50544
lclavicle 1.36292e-14 -2.00773e-14 0
lhumerus 52.259 2.19995 103.314
lradius 14.3467 0 0
lwrist -46.2747 0 0
lhand -32.7055 400.089 0
lfingers 7.12502 0 0
lthumb -5.92989 -290.014 0
rclavicle 1.36292e-14 -2.00773e-14 0
rhumerus -62.9357 17.5814 -93.5162
rradius 109.652 0 0
rwrist -70.5012 0 0
rhand -15.3814 -393.275 0
rfingers 7.12502 0 0
rthumb 10.7969 297.023 0
2144
root -2.53873 15.2127 -0.972574 -177.727 5.04071 -176.637
lfemur -51.3582 12.5971 -26.069
ltibia 54.1811 -0 0
lfoot -0.847514 24.6493 -0.0199967
ltoes 5.8573 -0 0
rfemur -4.51264 -1.00607 21.0635
rtibia 71.5391 -0 0
rfoot 10.9489 18.5692 -0.396762
rtoes -19.3143 0 0
lowerback 10.7274 -0.182645 -2.75307
upperback -1.03558 -0.340046 2.95388
thorax -7.09913 0.031246 4.75658
lowerneck -5.45715 0.32346 -4.48956
upperneck 4.97502 0.648256 2.22012
head 2.49225 0.304249 1.50389
lclavicle -1.78906e-15 -2.0276e-14 0
lhumerus 53.458 1.78796 103.672
lradius 11.4782 -0 0
lwrist -45.4688 0 0
lhand -32.8062 40.3485 0.00519257
lfingers 7.12502 -0 0
lthumb -6.02711 70.2445 0.00495043
rclavicle -1.78906e-15 -2.0276e-14 0
rhumerus -65.0314 15.6662 -93.5303
rradius 110.442 -0 0
rwrist -70.8127 0 0
rhand -15.0845 -33.6686 -0.0390289
rfingers 7.12502 -0 0
rthumb 11.0823 -63.3392 -0.0325207
2145
root -2.51567 15.2198 -1.21021 -178.205 4.19927 -177.264
lfemur -49.7028 12.1567 -26.6444
ltibia 54.4024 -0 0
lfoot -1.71128 25.5322 -0.0219359
ltoes 6.2748 -0 0
rfemur -7.61169 -1.53618 20.3462
rtibia 74.43 -0 0
rfoot 11.7162 18.4659 -0.638466
rtoes -17.8246 0 0
lowerback 10.9825 -0.315524 -3.44772
upperback -0.878383 -0.639475 2.86073
thorax -7.0482 -0.098151 5.11719
lowerneck -5.59557 0.276332 -4.55145
upperneck 5.1182 0.587256 2.21436
head 2.5444 0.269892 1.5024
lclavicle -1.78906e-15 -2.0276e-14 0
lhumerus 54.8412 1.4521 103.865
lradius 8.83621 -0 0
lwrist -44.8885 0 0
lhand -32.9339 40.6289 0.0128161
lfingers 7.12502 -0 0
lthumb -6.15045 70.5247 0.0122562
rclavicle -1.78906e-15 -2.0276e-14 0
rhumerus -66.975 14.1114 -93.619
rradius 111.727 -0 0
rwrist -71.4585 0 0
rhand -14.6362 -33.905 -0.067629
rfingers 7.12502 -0 0
rthumb 11.5134 -63.5328 -0.0543406
2146
root -2.4926 15.227 -1.44784 -178.582 3.5728 -177.804
lfemur -48.4258 11.76 -27.2381
ltibia 54.6737 -0 0
lfoot -2.42584 26.2385 -0.0138429
ltoes 6.47986 -0 0
rfemur -10.6376 -2.11302 19.9183
rtibia 77.3949 -0 0
rfoot 11.9131 18.1919 -0.73855
rtoes -16.6284 0 0
lowerback 11.2489 -0.421734 -4.02828
upperback -0.734773 -0.889279 2.77472
thorax -7.02182 -0.207099 5.41142
lowerneck -5.71545 0.25542 -4.57449
upperneck 5.21551 0.562705 2.21144
head 2.57744 0.257476 1.50128
lclavicle -1.78906e-15 -2.0276e-14 0
lhumerus 56.3532 1.17535 103.897
lradius 6.44287 -0 0
lwrist -44.4835 0 0
lhand -33.0813 40.9259 0.0227571
lfingers 7.12502 -0 0
lthumb -6.2928 70.822 0.0218099
rclavicle -1.78906e-15 -2.0276e-14 0
rhumerus -68.7386 12.8883 -93.7808
rradius 113.427 -0 0
rwrist -72.3756 0 0
rhand -14.0545 -34.0019 -0.087187
rfingers 7.12502 -0 0
rthumb 12.0728 -63.5769 -0.0671745
2147
root -2.46954 15.2342 -1.68547 -178.875 3.13018 -178.269
lfemur -47.473 11.3986 -27.8355
ltibia 54.9892 -0 0
lfoot -3.0145 26.7836 -0.00129842
ltoes 6.47559 -0 0
rfemur -13.5975 -2.70724 19.7452
rtibia 80.3922 -0 0
rfoot 11.6063 17.7587 -0.715378
rtoes -15.6873 0 0
lowerback 11.5236 -0.503952 -4.50734
upperback -0.604342 -1.09418 2.69509
thorax -7.01742 -0.297234 5.64636
lowerneck -5.81805 0.254649 -4.56512
upperneck 5.27657 0.565925 2.21246
head 2.59512 0.262055 1.50081
lclavicle -1.78906e-15 -2.0276e-14 0
lhumerus 57.9377 0.941704 103.774
lradius 4.32023 -0 0
lwrist -44.2034 0 0
lhand -33.2409 41.2349 0.0348243
lfingers 7.12502 -0 0
lthumb -6.44703 71.1318 0.0334291
rclavicle -1.78906e-15 -2.0276e-14 0
rhumerus -70.2946 11.9694 -94.011
rradius 115.461 -0 0
rwrist -73.5006 0 0
rhand -13.3575 -33.9769 -0.0998582
rfingers 7.12502 -0 0
rthumb 12.7432 -63.4904 -0.0734926
2148
root -2.44647 15.2413 -1.92311 -179.1 2.8396 -178.671
lfemur -46.7905 11.0648 -28.4239
ltibia 55.3427 -0 0
lfoot -3.50062 27.1823 0.0120405
ltoes 6.26507 -0 0
rfemur -16.4986 -3.29419 19.7906
rtibia 83.3804 -0 0
rfoot 10.8619 17.1744 -0.590723
rtoes -14.9627 0 0
lowerback 11.8041 -0.564825 -4.89747
upperback -0.486646 -1.25888 2.62101
thorax -7.03253 -0.370286 5.82904
lowerneck -5.90459 0.267887 -4.52977
upperneck 5.311 0.588239 2.21838
head 2.60117 0.278684 1.50126
lclavicle -1.78906e-15 -2.0276e-14 0
lhumerus 59.5381 0.735407 103.502
lradius 2.49035 -0 0
lwrist -43.9977 0 0
lhand -33.4056 41.5514 0.0487324
lfingers 7.12502 -0 0
lthumb -6.60604 71.4497 0.0468407
rclavicle -1.78906e-15 -2.0276e-14 0
rhumerus -71.6156 11.3293 -94.3011
rradius 117.749 -0 0
rwrist -74.7705 0 0
rhand -12.5632 -33.8478 -0.108169
rfingers 7.12502 -0 0
rthumb 13.5072 -63.2923 -0.0761092
2149
root -2.42341 15.2485 -2.16074 -179.27 2.66875 -179.022
lfemur -46.3248 10.7519 -28.9919
ltibia 55.7284 -0 0
lfoot -3.90762 27.4501 0.0239768
ltoes 5.85141 -0 0
rfemur -19.3471 -3.85364 20.0167
rtibia 86.3179 -0 0
rfoot 9.74533 16.4451 -0.388528
rtoes -14.4162 0 0
lowerback 12.0879 -0.606941 -5.21126
upperback -0.381211 -1.38807 2.55162
thorax -7.06475 -0.428055 5.96646
lowerneck -5.97628 0.288964 -4.47481
upperneck 5.3284 0.620976 2.23017
head 2.59933 0.302417 1.50286
lclavicle -1.78906e-15 -2.0276e-14 0
lhumerus 61.0977 0.540179 103.085
lradius 0.975286 -0 0
lwrist -43.816 0 0
lhand -33.5678 41.871 0.0640933
lfingers 7.12502 -0 0
lthumb -6.76271 71.7711 0.0616718
rclavicle -1.78906e-15 -2.0276e-14 0
rhumerus -72.6739 10.9443 -94.6392
rradius 120.21 -0 0
rwrist -76.1222 0 0
rhand -11.6894 -33.6321 -0.114675
rfingers 7.12502 -0 0
rthumb 14.3478 -63.0017 -0.0778305
2150
root -2.40034 15.2557 -2.39837 -179.399 2.58491 -179.329
lfemur -46.0225 10.4542 -29.529
ltibia 56.1403 -0 0
lfoot -4.25886 27.6019 0.0333708
ltoes 5.23771 -0 0
rfemur -22.1481 -4.36964 20.3844
rtibia 89.1631 -0 0
rfoot 8.32209 15.5766 -0.133812
rtoes -14.0093 0 0
lowerback 12.3727 -0.632804 -5.46133
upperback -0.287539 -1.48646 2.486
thorax -7.11175 -0.472387 6.06562
lowerneck -6.03432 0.311674 -4.4066
upperneck 5.3384 0.655467 2.24876
head 2.59333 0.328309 1.50588
lclavicle -1.78906e-15 -2.0276e-14 0
lhumerus 62.5598 0.33853 102.528
lradius -0.202885 0 0
lwrist -43.608 0 0
lhand -33.7202 42.1891 0.0804118
lfingers 7.12502 -0 0
lthumb -6.90994 72.0915 0.0774452
rclavicle -1.78906e-15 -2.0276e-14 0
rhumerus -73.4418 10.7923 -95.0091
rradius 122.764 -0 0
rwrist -77.4925 0 0
rhand -10.7541 -33.3475 -0.121675
rfingers 7.12502 -0 0
rthumb 15.2476 -62.6375 -0.0811583
